<svg width="20" height="20" viewBox="0 0 20 20" fill="none" xmlns="http://www.w3.org/2000/svg">
    <path
        d="M13.4976 1.66675H6.51075C3.4759 1.66675 1.66666 3.47508 1.66666 6.50841V13.4834C1.66666 16.5251 3.4759 18.3334 6.51075 18.3334H13.4892C16.5241 18.3334 18.3333 16.5251 18.3333 13.4917V6.50841C18.3416 3.47508 16.5324 1.66675 13.4976 1.66675ZM13.9895 8.08342L9.26212 12.8084C9.14539 12.9251 8.98698 12.9917 8.82023 12.9917C8.65348 12.9917 8.49507 12.9251 8.37834 12.8084L6.01883 10.4501C5.77705 10.2084 5.77705 9.80841 6.01883 9.56675C6.26062 9.32508 6.66082 9.32508 6.90261 9.56675L8.82023 11.4834L13.1057 7.20008C13.3475 6.95842 13.7477 6.95842 13.9895 7.20008C14.2313 7.44175 14.2313 7.83342 13.9895 8.08342Z"
        fill="#1BC253" />
</svg>
